<svg class="icon" style="width: 1em;height: 1em;vertical-align: middle;fill: currentColor;overflow: hidden;" viewBox="0 0 1024 1024" version="1.1" xmlns="http://www.w3.org/2000/svg"><path d="M138.666667 138.666667m128 0l85.333333 0q128 0 128 128l0 85.333333q0 128-128 128l-85.333333 0q-128 0-128-128l0-85.333333q0-128 128-128Z" fill="#09183F" /><path d="M138.666667 544m128 0l85.333333 0q128 0 128 128l0 85.333333q0 128-128 128l-85.333333 0q-128 0-128-128l0-85.333333q0-128 128-128Z" fill="#BEC1C8" /><path d="M544 138.666667m128 0l85.333333 0q128 0 128 128l0 85.333333q0 128-128 128l-85.333333 0q-128 0-128-128l0-85.333333q0-128 128-128Z" fill="#BEC1C8" /><path d="M544 544m128 0l85.333333 0q128 0 128 128l0 85.333333q0 128-128 128l-85.333333 0q-128 0-128-128l0-85.333333q0-128 128-128Z" fill="#09183F" /></svg>